# xmcd
#
# Track frame offsets:
#	150
#	10175
#	29885
#	49750
#	75093
#	101899
#	116185
#	121330
#	143833
#	168567
#	183732
#
# Disc length: 2740 seconds
# Revision: 0
# Processed by: cddbd v1.5.2PL0 Copyright (c) Steve Scherf et al.
# Submitted via: dBpowerAMP V12.0
#
DISCID=970ab20b
DTITLE=Heaven Shall Burn - Wanderer (Dark Purity Mix)
DYEAR=2016
DGENRE=Metal
TTITLE0=The Loss of Fury
TTITLE1=Bring the War Home
TTITLE2=Passage of the Crane
TTITLE3=They Shall Not Pass
TTITLE4=Downshifter
TTITLE5=Prey to God
TTITLE6=My Heart Is My Compass
TTITLE7=Save Me
TTITLE8=Corium
TTITLE9=Extermination Order
TTITLE10=A River of Crimson
EXTD=
EXTT0=
EXTT1=
EXTT2=
EXTT3=
EXTT4=
EXTT5=
EXTT6=
EXTT7=
EXTT8=
EXTT9=
EXTT10=
PLAYORDER=
